<?xml version="1.0" encoding="UTF-8" standalone="no"?>
<svg
   xmlns:dc="http://purl.org/dc/elements/1.1/"
   xmlns:cc="http://creativecommons.org/ns#"
   xmlns:rdf="http://www.w3.org/1999/02/22-rdf-syntax-ns#"
   xmlns:svg="http://www.w3.org/2000/svg"
   xmlns="http://www.w3.org/2000/svg"
   xmlns:sodipodi="http://sodipodi.sourceforge.net/DTD/sodipodi-0.dtd"
   xmlns:inkscape="http://www.inkscape.org/namespaces/inkscape"
   id="Layer_1"
   data-name="Layer 1"
   viewBox="0 0 96 96"
   version="1.1"
   sodipodi:docname="tram.svg"
   inkscape:version="0.92+devel unknown">
  <metadata
     id="metadata3560">
    <rdf:RDF>
      <cc:Work
         rdf:about="">
        <dc:format>image/svg+xml</dc:format>
        <dc:type
           rdf:resource="http://purl.org/dc/dcmitype/StillImage" />
        <dc:title></dc:title>
      </cc:Work>
    </rdf:RDF>
  </metadata>
  <sodipodi:namedview
     pagecolor="#ffffff"
     bordercolor="#666666"
     inkscape:document-rotation="0"
     borderopacity="1"
     objecttolerance="10"
     gridtolerance="10"
     guidetolerance="10"
     inkscape:pageopacity="0"
     inkscape:pageshadow="2"
     inkscape:window-width="1920"
     inkscape:window-height="1141"
     id="namedview3558"
     showgrid="false"
     inkscape:pagecheckerboard="false"
     inkscape:zoom="9.2604167"
     inkscape:cx="35.635546"
     inkscape:cy="56.63892"
     inkscape:window-x="0"
     inkscape:window-y="30"
     inkscape:window-maximized="1"
     inkscape:current-layer="Layer_1" />
  <defs
     id="defs3539">
    <style
       id="style3537">.cls-1{fill:#262728;}</style>
  </defs>
  <path
     class="cls-1"
     d="M55.33,0H40.67A14.52,14.52,0,0,0,28,8h4.5a10.59,10.59,0,0,1,8.17-4H55.33A10.59,10.59,0,0,1,63.5,8H68A14.52,14.52,0,0,0,55.33,0Z"
     id="path3541"
     style="fill:#000000;fill-opacity:1" />
  <polygon
     class="cls-1"
     points="56 0 49.6 16 46.4 16 52.8 0 56 0"
     id="polygon3543"
     style="fill:#000000;fill-opacity:1" />
  <polygon
     class="cls-1"
     points="40 0 46.4 16 49.6 16 43.2 0 40 0"
     id="polygon3545"
     style="fill:#000000;fill-opacity:1" />
  <polygon
     class="cls-1"
     points="36.21,88 28.25,88 24,96 32,96 "
     id="polygon3547"
     style="fill:#000000;fill-opacity:1"
     transform="translate(0,-8)" />
  <polygon
     class="cls-1"
     points="72,96 67.77,88 59.77,88 64,96 "
     id="polygon3549"
     style="fill:#000000;fill-opacity:1"
     transform="translate(0,-8)" />
  <path
     class="cls-1"
     d="M64,16H32c-8.84,0-16,6.77-16,15.11V68.89C16,77.23,30.33,84,48,84s32-6.77,32-15.11V31.11C80,22.77,72.84,16,64,16ZM28,68a4,4,0,1,1,4-4A4,4,0,0,1,28,68Zm40,0a4,4,0,1,1,4-4A4,4,0,0,1,68,68Zm4-16H24V31c0-3.87,3.58-7,8-7H64c4.42,0,8,3.13,8,7V52Z"
     id="path3551"
     style="fill:#000000;fill-opacity:1" />
  <rect
     class="cls-1"
     x="32"
     y="24"
     width="4"
     height="28"
     id="rect3553"
     style="fill:#000000;fill-opacity:1" />
  <rect
     class="cls-1"
     x="60"
     y="24"
     width="4"
     height="28"
     id="rect3555"
     style="fill:#000000;fill-opacity:1" />
</svg>
