<?xml version="1.0" encoding="UTF-8" standalone="no"?>
<svg
   xmlns:dc="http://purl.org/dc/elements/1.1/"
   xmlns:cc="http://creativecommons.org/ns#"
   xmlns:rdf="http://www.w3.org/1999/02/22-rdf-syntax-ns#"
   xmlns:svg="http://www.w3.org/2000/svg"
   xmlns="http://www.w3.org/2000/svg"
   id="svg8"
   version="1.1"
   viewBox="0 0 100 100"
   height="100mm"
   width="100mm">
  <defs
     id="defs2" />
  <metadata
     id="metadata5">
    <rdf:RDF>
      <cc:Work
         rdf:about="">
        <dc:format>image/svg+xml</dc:format>
        <dc:type
           rdf:resource="http://purl.org/dc/dcmitype/StillImage" />
        <dc:title></dc:title>
      </cc:Work>
    </rdf:RDF>
  </metadata>
  <g
     transform="translate(0,-197)"
     id="layer1">
    <circle
       r="44.601189"
       cy="247"
       cx="50"
       id="path10"
       style="fill:#26b4c7;fill-rule:evenodd;stroke-width:0.26458332;fill-opacity:1" />
    <circle
       r="32.694939"
       style="fill:#ffffff;fill-opacity:1;fill-rule:evenodd;stroke-width:0.19395302"
       id="circle817"
       cx="50"
       cy="247" />
    <g
       id="flowRoot819"
       style="font-style:normal;font-variant:normal;font-weight:normal;font-stretch:normal;font-size:192px;font-family:Arial;-inkscape-font-specification:Arial;fill:#000000;fill-opacity:1;stroke:none"
       transform="matrix(0.34756462,0,0,0.34756462,-1.4687275,174.80787)"
       aria-label="B">
      <path
         id="path4443"
         style=""
         d="m 202.22266,236.53665 q 0,10.03125 -3.9375,17.15625 -3.9375,7.03125 -10.59375,11.53125 -6.65625,4.40625 -15.46875,6.46875 -8.8125,2.0625 -18.5625,2.0625 h -53.625 V 141.66165 h 48 q 10.96875,0 19.59375,1.875 8.625,1.78125 14.625,5.71875 6,3.9375 9.09375,10.03125 3.1875,6 3.1875,14.4375 0,5.53125 -1.59375,10.40625 -1.5,4.875 -4.6875,8.90625 -3.09375,3.9375 -7.875,6.84375 -4.6875,2.8125 -10.96875,4.21875 7.96875,0.9375 14.0625,3.65625 6.1875,2.71875 10.3125,6.9375 4.125,4.21875 6.28125,9.84375 2.15625,5.53125 2.15625,12 z m -25.6875,-60.65625 q 0,-10.6875 -7.3125,-15.28125 -7.3125,-4.59375 -21.1875,-4.59375 h -30.09375 v 41.8125 h 30.09375 q 7.875,0 13.3125,-1.5 5.4375,-1.59375 8.8125,-4.40625 3.375,-2.90625 4.875,-6.9375 1.5,-4.03125 1.5,-9.09375 z m 7.59375,59.25 q 0,-6.28125 -2.34375,-10.6875 -2.25,-4.40625 -6.5625,-7.21875 -4.3125,-2.8125 -10.40625,-4.125 -6,-1.3125 -13.5,-1.3125 h -33.375 v 47.625 h 34.78125 q 6.84375,0 12.5625,-1.125 5.8125,-1.125 9.9375,-3.9375 4.21875,-2.8125 6.5625,-7.5 2.34375,-4.6875 2.34375,-11.71875 z" />
    </g>
  </g>
</svg>
