<?xml version="1.0" encoding="UTF-8" standalone="no"?>
<svg
   xmlns:dc="http://purl.org/dc/elements/1.1/"
   xmlns:cc="http://creativecommons.org/ns#"
   xmlns:rdf="http://www.w3.org/1999/02/22-rdf-syntax-ns#"
   xmlns:svg="http://www.w3.org/2000/svg"
   xmlns="http://www.w3.org/2000/svg"
   id="svg8"
   version="1.1"
   viewBox="0 0 100 100"
   height="100mm"
   width="100mm">
  <defs
     id="defs2" />
  <metadata
     id="metadata5">
    <rdf:RDF>
      <cc:Work
         rdf:about="">
        <dc:format>image/svg+xml</dc:format>
        <dc:type
           rdf:resource="http://purl.org/dc/dcmitype/StillImage" />
        <dc:title></dc:title>
      </cc:Work>
    </rdf:RDF>
  </metadata>
  <g
     transform="translate(0,-197)"
     id="layer1">
    <circle
       r="44.601189"
       cy="247"
       cx="50"
       id="path10"
       style="fill:#26b44b;fill-rule:evenodd;stroke-width:0.26458332;fill-opacity:1" />
    <circle
       r="32.694939"
       style="fill:#ffffff;fill-opacity:1;fill-rule:evenodd;stroke-width:0.19395302"
       id="circle817"
       cx="50"
       cy="247" />
    <g
       id="flowRoot819"
       style="font-style:normal;font-variant:normal;font-weight:normal;font-stretch:normal;font-size:192px;font-family:Arial;-inkscape-font-specification:Arial;fill:#000000;fill-opacity:1;stroke:none"
       transform="matrix(0.34756462,0,0,0.34756462,-1.5495354,173.74953)"
       aria-label="A">
      <path
         id="path4270"
         style=""
         d="m 193.69141,273.7554 -15.09375,-38.625 h -60.1875 l -15.1875,38.625 H 84.660156 L 138.56641,141.66165 h 20.34375 l 53.0625,132.09375 z m -37.40625,-96.1875 q -1.5,-3.75 -2.90625,-7.59375 -1.3125,-3.84375 -2.34375,-6.9375 -1.03125,-3.1875 -1.78125,-5.25 -0.65625,-2.15625 -0.75,-2.625 -0.1875,0.46875 -0.84375,2.625 -0.65625,2.15625 -1.78125,5.34375 -1.03125,3.1875 -2.4375,7.03125 -1.3125,3.84375 -2.71875,7.59375 l -16.875,43.40625 h 49.40625 z" />
    </g>
  </g>
</svg>
